# xmcd CD database file generated by Grip 3.3.1
# 
# Track frame offsets:
#       151
#       16003
#       35580
#       56018
#       76823
#       93407
#       131158
#       152689
#       165996
#       177122
# 
# Disc length: 2594 seconds
# 
# Revision: 2
# Processed by: cddbd v1.5.2PL0 Copyright (c) Steve Scherf et al.
# Submitted via: Grip 3.3.1
# 
DISCID=6d0a200a
DTITLE=Scottish National Jazz Orchestra (with Ingrid Jensen) - Miles Ahe
DTITLE=ad
DYEAR=2002
DGENRE=Jazz
TTITLE0=Springville
TTITLE1=The Maids Of Cadiz
TTITLE2=The Duke
TTITLE3=My Ship
TTITLE4=Miles Ahead
TTITLE5=Blues For Pablo
TTITLE6=New Rhumba
TTITLE7=The Meaning Of The Blues
TTITLE8=Lament
TTITLE9=I Don't Want To Be Kissed
EXTD=YEAR: 2002
EXTT0=
EXTT1=
EXTT2=
EXTT3=
EXTT4=
EXTT5=
EXTT6=
EXTT7=
EXTT8=
EXTT9=
PLAYORDER=
